<?xml version="1.0" encoding="UTF-8" standalone="no"?>
<svg
   xmlns:dc="http://purl.org/dc/elements/1.1/"
   xmlns:cc="http://creativecommons.org/ns#"
   xmlns:rdf="http://www.w3.org/1999/02/22-rdf-syntax-ns#"
   xmlns:svg="http://www.w3.org/2000/svg"
   xmlns="http://www.w3.org/2000/svg"
   xmlns:sodipodi="http://sodipodi.sourceforge.net/DTD/sodipodi-0.dtd"
   xmlns:inkscape="http://www.inkscape.org/namespaces/inkscape"
   viewBox="0 0 129 129"
   version="1.1"
   id="svg17123"
   sodipodi:docname="numpy-simple.svg"
   width="129"
   height="129"
   inkscape:version="0.92.3 (2405546, 2018-03-11)">
  <metadata
     id="metadata17129">
    <rdf:RDF>
      <cc:Work
         rdf:about="">
        <dc:format>image/svg+xml</dc:format>
        <dc:type
           rdf:resource="http://purl.org/dc/dcmitype/StillImage" />
      </cc:Work>
    </rdf:RDF>
  </metadata>
  <defs
     id="defs17127" />
  <sodipodi:namedview
     pagecolor="#ffffff"
     bordercolor="#666666"
     borderopacity="1"
     objecttolerance="10"
     gridtolerance="10"
     guidetolerance="10"
     inkscape:pageopacity="0"
     inkscape:pageshadow="2"
     inkscape:window-width="1920"
     inkscape:window-height="1017"
     id="namedview17125"
     showgrid="false"
     inkscape:zoom="4.1643836"
     inkscape:cx="46.660394"
     inkscape:cy="47.990817"
     inkscape:window-x="-8"
     inkscape:window-y="-8"
     inkscape:window-maximized="1"
     inkscape:current-layer="svg17123" />
  <g
     id="g17463"
     transform="matrix(0.50444344,0,0,0.50444344,7.7039566,0.49999126)">
    <path
       id="path16457"
       d="M 70.482,161.129 71.39,206.388 26.767,198.52 25.86,153.261 Z"
       inkscape:connector-curvature="0"
       style="fill:#ffd65d" />
    <path
       id="path16459"
       d="m 3.806,217.848 -0.45,-0.079 22.53,-17.485 0.45,0.08 z"
       inkscape:connector-curvature="0"
       style="fill:#7684ca" />
    <path
       id="path16461"
       d="m 70.914,161.286 0.442,0.078 0.009,0.457 0.926,46.181 0.009,0.466 -0.442,-0.078 -45.522,-8.026 -0.45,-0.079 -0.009,-0.466 -0.926,-46.182 -0.009,-0.457 0.45,0.079 z m 0.476,46.102 -0.907,-45.259 -44.623,-7.868 0.907,45.259 44.623,7.868"
       inkscape:connector-curvature="0"
       style="fill:#6272c3" />
    <path
       id="path16463"
       d="m 3.347,217.303 -0.926,-46.182 22.53,-17.484 0.925,46.182 z"
       inkscape:connector-curvature="0"
       style="fill:#7a88cc" />
    <path
       id="path16465"
       d="m 2.421,171.121 -0.009,-0.457 22.529,-17.484 0.01,0.457 z m 0.909,0.624 22.53,-17.484 0.907,45.259 -22.53,17.484 z"
       inkscape:connector-curvature="0"
       style="fill:#7a88cc" />
    <path
       id="path16467"
       d="M 4.237,217.004 3.33,171.745 25.86,154.261 26.767,199.52 Z"
       inkscape:connector-curvature="0"
       style="fill:#ffdd77" />
    <path
       id="path16469"
       d="m 2.412,170.664 22.529,-17.484 0.451,0.079 -22.53,17.484 z m 46.916,55.21 -45.522,-8.026 22.53,-17.484 45.522,8.026 z"
       inkscape:connector-curvature="0"
       style="fill:#7684ca" />
    <path
       id="path16471"
       d="M 48.86,224.872 4.237,217.004 26.767,199.52 71.39,207.388 Z"
       inkscape:connector-curvature="0"
       style="fill:#ffdc72" />
    <path
       id="path16473"
       d="m 4.237,217.004 22.53,-17.484 44.623,7.868 -22.53,17.484 z m 45.533,8.948 -0.442,-0.078 22.53,-17.484 0.442,0.078 z"
       inkscape:connector-curvature="0"
       style="fill:#7684ca" />
    <path
       id="path16475"
       d="m 49.761,225.487 22.53,-17.485 0.009,0.466 -22.53,17.484 z"
       inkscape:connector-curvature="0"
       style="fill:#7a88cc" />
    <path
       id="path16477"
       d="M 47.953,179.614 3.33,171.745 25.86,154.261 70.482,162.129 Z"
       inkscape:connector-curvature="0"
       style="fill:#7684ca" />
    <path
       id="path16479"
       d="m 3.33,171.745 22.53,-17.484 44.622,7.868 -22.529,17.485 z"
       inkscape:connector-curvature="0"
       style="fill:#ffdc72" />
    <path
       id="path16481"
       d="m 48.86,224.872 -0.907,-45.258 22.529,-17.485 0.908,45.259 z"
       inkscape:connector-curvature="0"
       style="fill:#7a88cc" />
    <path
       id="path16483"
       d="m 47.953,179.614 22.529,-17.485 0.908,45.259 -22.53,17.484 z"
       inkscape:connector-curvature="0"
       style="fill:#ffdd77" />
    <path
       id="path16485"
       d="m 48.384,178.771 0.442,0.078 0.009,0.457 0.926,46.181 0.009,0.466 -0.442,-0.078 -45.522,-8.026 -0.45,-0.079 -0.009,-0.466 -0.926,-46.182 -0.009,-0.457 0.45,0.079 z m 0.476,46.101 -0.907,-45.259 -44.623,-7.868 0.907,45.259 44.623,7.868"
       inkscape:connector-curvature="0"
       style="fill:#6272c3" />
    <path
       id="path16487"
       d="M 47.953,179.614 48.86,224.872 4.237,217.004 3.33,171.745 Z"
       inkscape:connector-curvature="0"
       style="fill:#ffd65d" />
    <path
       id="path16489"
       d="m 2.862,170.743 22.53,-17.484 45.522,8.027 -22.53,17.485 z"
       inkscape:connector-curvature="0"
       style="fill:#7684ca" />
    <path
       id="path16491"
       d="m 48.835,179.306 22.53,-17.484 0.926,46.18 -22.53,17.485 z"
       inkscape:connector-curvature="0"
       style="fill:#7a88cc" />
    <path
       id="path16493"
       d="m 48.384,178.771 22.53,-17.485 0.441,0.079 -22.529,17.484 z"
       inkscape:connector-curvature="0"
       style="fill:#7684ca" />
    <path
       id="path16495"
       d="m 48.826,178.849 22.529,-17.484 0.01,0.457 -22.53,17.484 z m 4.912,48.271 -0.009,-0.465 22.529,-17.485 0.01,0.466 z"
       inkscape:connector-curvature="0"
       style="fill:#7a88cc" />
    <path
       id="path16497"
       d="m 54.188,227.199 -0.45,-0.079 22.53,-17.484 0.45,0.079 z"
       inkscape:connector-curvature="0"
       style="fill:#7684ca" />
    <path
       id="path16499"
       d="m 121.295,170.638 0.442,0.078 0.009,0.465 0.926,46.173 0.009,0.466 -0.442,-0.078 -45.522,-8.026 -0.45,-0.079 -0.009,-0.466 -0.925,-46.173 -0.01,-0.466 0.45,0.079 z m 0.476,46.102 -0.907,-45.259 -44.623,-7.868 0.907,45.259 44.623,7.868"
       inkscape:connector-curvature="0"
       style="fill:#6272c3" />
    <path
       id="path16501"
       d="m 53.729,226.655 -0.926,-46.173 22.53,-17.485 0.925,46.173 z"
       inkscape:connector-curvature="0"
       style="fill:#7a88cc" />
    <path
       id="path16503"
       d="m 52.803,180.482 -0.009,-0.466 22.529,-17.484 0.01,0.465 z m 0.909,0.615 22.53,-17.484 0.907,45.258 -22.53,17.485 z"
       inkscape:connector-curvature="0"
       style="fill:#7a88cc" />
    <path
       id="path16505"
       d="m 54.619,226.356 -0.907,-45.259 22.53,-17.484 0.907,45.258 z"
       inkscape:connector-curvature="0"
       style="fill:#7a9ec8" />
    <path
       id="path16507"
       d="m 52.794,180.016 22.529,-17.484 0.45,0.079 -22.529,17.484 z m 46.916,55.21 -45.522,-8.027 22.53,-17.484 45.522,8.026 z"
       inkscape:connector-curvature="0"
       style="fill:#7684ca" />
    <path
       id="path16509"
       d="m 99.242,234.224 -44.623,-7.868 22.53,-17.485 44.622,7.869 z"
       inkscape:connector-curvature="0"
       style="fill:#769ac7" />
    <path
       id="path16511"
       d="m 54.619,226.356 22.53,-17.485 44.622,7.869 -22.529,17.484 z m 45.533,8.948 -0.442,-0.078 22.53,-17.485 0.442,0.079 z"
       inkscape:connector-curvature="0"
       style="fill:#7684ca" />
    <path
       id="path16513"
       d="m 100.143,234.838 22.529,-17.484 0.01,0.466 -22.53,17.484 z"
       inkscape:connector-curvature="0"
       style="fill:#7a88cc" />
    <path
       id="path16515"
       d="m 98.334,188.965 -44.622,-7.868 22.53,-17.484 44.622,7.868 z"
       inkscape:connector-curvature="0"
       style="fill:#7684ca" />
    <path
       id="path16517"
       d="m 53.712,181.097 22.53,-17.484 44.622,7.868 -22.53,17.484 z"
       inkscape:connector-curvature="0"
       style="fill:#769ac7" />
    <path
       id="path16519"
       d="m 99.242,234.224 -0.908,-45.259 22.53,-17.484 0.907,45.259 z"
       inkscape:connector-curvature="0"
       style="fill:#7a88cc" />
    <path
       id="path16521"
       d="m 98.334,188.965 22.53,-17.484 0.907,45.259 -22.529,17.484 z"
       inkscape:connector-curvature="0"
       style="fill:#7a9ec8" />
    <path
       id="path16523"
       d="m 98.766,188.122 0.442,0.077 0.009,0.466 0.925,46.173 0.009,0.466 -0.442,-0.078 -45.522,-8.026 -0.45,-0.079 -0.009,-0.466 -0.926,-46.173 -0.009,-0.466 0.45,0.079 z m 0.476,46.102 -0.907,-45.259 -44.623,-7.868 0.907,45.259 44.623,7.868"
       inkscape:connector-curvature="0"
       style="fill:#6272c3" />
    <path
       id="path16525"
       d="m 98.334,188.965 0.908,45.259 -44.623,-7.868 -0.907,-45.259 z"
       inkscape:connector-curvature="0"
       style="fill:#628cbe" />
    <path
       id="path16527"
       d="m 53.244,180.095 22.529,-17.484 45.522,8.027 -22.529,17.484 z"
       inkscape:connector-curvature="0"
       style="fill:#7684ca" />
    <path
       id="path16529"
       d="m 99.217,188.665 22.53,-17.484 0.925,46.173 -22.529,17.484 z"
       inkscape:connector-curvature="0"
       style="fill:#7a88cc" />
    <path
       id="path16531"
       d="m 98.766,188.122 22.529,-17.484 0.442,0.078 -22.529,17.483 z"
       inkscape:connector-curvature="0"
       style="fill:#7684ca" />
    <path
       id="path16533"
       d="m 99.208,188.199 22.529,-17.483 0.01,0.465 -22.53,17.484 z m 5.92,48.272 -0.009,-0.465 22.529,-17.484 0.009,0.465 z"
       inkscape:connector-curvature="0"
       style="fill:#7a88cc" />
    <path
       id="path16535"
       d="m 105.57,236.549 -0.442,-0.078 22.529,-17.484 0.443,0.078 z"
       inkscape:connector-curvature="0"
       style="fill:#7684ca" />
    <path
       id="path16537"
       d="m 172.677,179.988 0.441,0.078 0.009,0.465 0.926,46.174 0.009,0.465 -0.441,-0.078 -45.522,-8.026 -0.442,-0.078 -0.009,-0.465 -0.925,-46.174 -0.009,-0.465 0.442,0.078 z m 0.476,46.101 -0.907,-45.258 -44.623,-7.868 0.908,45.259 44.622,7.867"
       inkscape:connector-curvature="0"
       style="fill:#6272c3" />
    <path
       id="path16539"
       d="m 105.119,236.006 -0.926,-46.174 22.53,-17.484 0.925,46.174 z"
       inkscape:connector-curvature="0"
       style="fill:#7a88cc" />
    <path
       id="path16541"
       d="m 104.193,189.832 -0.009,-0.465 22.529,-17.484 0.01,0.465 z m 0.901,0.616 22.529,-17.485 0.908,45.259 -22.53,17.483 z"
       inkscape:connector-curvature="0"
       style="fill:#7a88cc" />
    <path
       id="path16543"
       d="m 106.001,235.705 -0.907,-45.257 22.53,-17.485 0.907,45.259 z"
       inkscape:connector-curvature="0"
       style="fill:#7a9ec8" />
    <path
       id="path16545"
       d="m 104.184,189.367 22.529,-17.484 0.442,0.078 -22.53,17.485 z m 46.908,55.208 -45.522,-8.026 22.53,-17.484 45.522,8.026 z"
       inkscape:connector-curvature="0"
       style="fill:#7684ca" />
    <path
       id="path16547"
       d="m 106.001,235.705 22.53,-17.483 44.622,7.867 -22.529,17.484 z"
       inkscape:connector-curvature="0"
       style="fill:#7684ca" />
    <path
       id="path16549"
       d="m 150.624,243.573 -44.623,-7.868 22.53,-17.483 44.622,7.867 z"
       inkscape:connector-curvature="0"
       style="fill:#769ac7" />
    <path
       id="path16551"
       d="m 151.533,244.654 -0.441,-0.079 22.53,-17.484 0.441,0.078 z"
       inkscape:connector-curvature="0"
       style="fill:#7684ca" />
    <path
       id="path16553"
       d="m 151.524,244.189 22.53,-17.485 0.009,0.465 -22.53,17.485 z"
       inkscape:connector-curvature="0"
       style="fill:#7a88cc" />
    <path
       id="path16555"
       d="m 149.716,198.316 0.908,45.257 -44.623,-7.868 -0.907,-45.257 z"
       inkscape:connector-curvature="0"
       style="fill:#628cbe" />
    <path
       id="path16557"
       d="m 149.716,198.316 -44.622,-7.868 22.529,-17.485 44.623,7.868 z"
       inkscape:connector-curvature="0"
       style="fill:#7684ca" />
    <path
       id="path16559"
       d="m 105.094,190.448 22.53,-17.485 44.622,7.868 -22.53,17.485 z"
       inkscape:connector-curvature="0"
       style="fill:#769ac7" />
    <path
       id="path16561"
       d="m 149.716,198.316 22.53,-17.485 0.907,45.258 -22.529,17.484 z"
       inkscape:connector-curvature="0"
       style="fill:#7a9ec8" />
    <path
       id="path16563"
       d="m 150.624,243.573 -0.908,-45.257 22.53,-17.485 0.907,45.258 z"
       inkscape:connector-curvature="0"
       style="fill:#7a88cc" />
    <path
       id="path16565"
       d="m 104.625,189.446 22.53,-17.485 45.522,8.027 -22.53,17.484 z"
       inkscape:connector-curvature="0"
       style="fill:#7684ca" />
    <path
       id="path16567"
       d="m 150.599,198.015 22.529,-17.484 0.926,46.173 -22.53,17.485 z"
       inkscape:connector-curvature="0"
       style="fill:#7a88cc" />
    <path
       id="path16569"
       d="m 150.147,197.472 22.53,-17.484 0.442,0.078 -22.53,17.484 z"
       inkscape:connector-curvature="0"
       style="fill:#7684ca" />
    <path
       id="path16571"
       d="m 150.589,197.55 22.53,-17.484 0.009,0.465 -22.529,17.484 z"
       inkscape:connector-curvature="0"
       style="fill:#7a88cc" />
    <path
       id="path16573"
       d="m 150.147,197.472 0.441,0.078 0.01,0.465 0.925,46.174 0.009,0.465 -0.441,-0.078 -45.522,-8.026 -0.442,-0.078 -0.009,-0.465 -0.926,-46.174 -0.009,-0.465 0.442,0.078 z m 0.477,46.101 -0.907,-45.258 -44.623,-7.868 0.907,45.258 44.623,7.868"
       inkscape:connector-curvature="0"
       style="fill:#6272c3" />
    <path
       id="path16575"
       d="m 69.483,111.127 0.908,45.258 -44.631,-7.869 -0.907,-45.259 z"
       inkscape:connector-curvature="0"
       style="fill:#ffd65d" />
    <path
       id="path16577"
       d="m 2.357,166.765 -0.009,-0.465 22.529,-17.484 0.01,0.465 z"
       inkscape:connector-curvature="0"
       style="fill:#7a88cc" />
    <path
       id="path16579"
       d="m 2.807,166.845 -0.45,-0.08 22.53,-17.484 0.45,0.08 z"
       inkscape:connector-curvature="0"
       style="fill:#7684ca" />
    <path
       id="path16581"
       d="m 69.907,110.282 0.45,0.079 0.009,0.465 0.926,46.173 0.009,0.466 -0.45,-0.079 -45.514,-8.025 -0.45,-0.08 -0.009,-0.465 -0.925,-46.173 -0.009,-0.465 0.45,0.08 z m 0.484,46.103 -0.907,-45.258 -44.631,-7.87 0.908,45.259 44.63,7.869"
       inkscape:connector-curvature="0"
       style="fill:#6272c3" />
    <path
       id="path16583"
       d="m 2.348,166.3 -0.926,-46.173 22.53,-17.485 0.925,46.174 z m -0.926,-46.173 -0.009,-0.466 22.53,-17.484 0.009,0.465 z"
       inkscape:connector-curvature="0"
       style="fill:#7a88cc" />
    <path
       id="path16585"
       d="M 2.323,120.741 24.853,103.257 25.76,148.516 3.23,166 Z"
       inkscape:connector-curvature="0"
       style="fill:#7a88cc" />
    <path
       id="path16587"
       d="m 3.23,166 -0.907,-45.259 22.53,-17.484 0.907,45.259 z"
       inkscape:connector-curvature="0"
       style="fill:#ffdd77" />
    <path
       id="path16589"
       d="m 1.413,119.661 22.53,-17.484 0.45,0.08 -22.53,17.483 z m 46.908,55.209 -45.514,-8.025 22.53,-17.484 45.514,8.025 z"
       inkscape:connector-curvature="0"
       style="fill:#7684ca" />
    <path
       id="path16591"
       d="M 47.861,173.869 3.23,166 l 22.53,-17.484 44.631,7.869 z"
       inkscape:connector-curvature="0"
       style="fill:#ffdc72" />
    <path
       id="path16593"
       d="m 3.23,166 22.53,-17.484 44.631,7.869 -22.53,17.484 z m 45.541,8.949 -0.45,-0.079 22.53,-17.484 0.45,0.079 z"
       inkscape:connector-curvature="0"
       style="fill:#7684ca" />
    <path
       id="path16595"
       d="m 48.762,174.484 22.53,-17.485 0.009,0.466 -22.53,17.484 z"
       inkscape:connector-curvature="0"
       style="fill:#7a88cc" />
    <path
       id="path16597"
       d="M 46.954,128.611 47.861,173.869 3.23,166 2.323,120.741 Z"
       inkscape:connector-curvature="0"
       style="fill:#ffd65d" />
    <path
       id="path16599"
       d="m 2.323,120.741 22.53,-17.484 44.63,7.87 -22.529,17.484 z"
       inkscape:connector-curvature="0"
       style="fill:#ffdc72" />
    <path
       id="path16601"
       d="m 46.954,128.611 -44.631,-7.87 22.53,-17.484 44.63,7.87 z"
       inkscape:connector-curvature="0"
       style="fill:#7684ca" />
    <path
       id="path16603"
       d="m 47.861,173.869 -0.907,-45.258 22.529,-17.484 0.908,45.258 z"
       inkscape:connector-curvature="0"
       style="fill:#7a88cc" />
    <path
       id="path16605"
       d="m 46.954,128.611 22.529,-17.484 0.908,45.258 -22.53,17.484 z"
       inkscape:connector-curvature="0"
       style="fill:#ffdd77" />
    <path
       id="path16607"
       d="m 1.863,119.74 22.53,-17.483 45.514,8.025 -22.53,17.484 z"
       inkscape:connector-curvature="0"
       style="fill:#7684ca" />
    <path
       id="path16609"
       d="m 47.836,128.311 22.53,-17.485 0.926,46.173 -22.53,17.485 z"
       inkscape:connector-curvature="0"
       style="fill:#7a88cc" />
    <path
       id="path16611"
       d="m 47.377,127.766 22.53,-17.484 0.449,0.079 -22.529,17.484 z"
       inkscape:connector-curvature="0"
       style="fill:#7684ca" />
    <path
       id="path16613"
       d="m 47.827,127.845 22.529,-17.484 0.01,0.465 -22.53,17.485 z"
       inkscape:connector-curvature="0"
       style="fill:#7a88cc" />
    <path
       id="path16615"
       d="m 47.377,127.766 0.45,0.08 0.009,0.465 0.925,46.173 0.009,0.466 -0.45,-0.079 -45.514,-8.025 -0.45,-0.08 -0.009,-0.465 -0.926,-46.173 -0.009,-0.465 0.45,0.079 z m 0.484,46.103 -0.907,-45.259 -44.63,-7.869 0.907,45.259 44.63,7.869"
       inkscape:connector-curvature="0"
       style="fill:#6272c3" />
    <path
       id="path16617"
       d="m 52.739,176.116 -0.009,-0.465 22.529,-17.485 0.01,0.466 z"
       inkscape:connector-curvature="0"
       style="fill:#7a88cc" />
    <path
       id="path16619"
       d="m 53.189,176.197 -0.45,-0.081 22.53,-17.484 0.45,0.08 z"
       inkscape:connector-curvature="0"
       style="fill:#7684ca" />
    <path
       id="path16621"
       d="m 52.73,175.651 -0.926,-46.173 22.53,-17.485 0.925,46.173 z"
       inkscape:connector-curvature="0"
       style="fill:#7a88cc" />
    <path
       id="path16623"
       d="m 52.705,130.093 22.529,-17.485 0.908,45.259 -22.53,17.485 z"
       inkscape:connector-curvature="0"
       style="fill:#7a88cc" />
    <path
       id="path16625"
       d="m 53.612,175.352 -0.907,-45.259 22.53,-17.485 0.907,45.259 z"
       inkscape:connector-curvature="0"
       style="fill:#7a9ec8" />
    <path
       id="path16627"
       d="m 121.673,166.351 -0.925,-46.174 -0.01,-0.465 -0.449,-0.079 -45.515,-8.025 -0.45,-0.08 0.01,0.465 0.026,1.294 0.874,-0.679 44.631,7.87 0.907,45.259 -44.63,-7.87 -0.875,0.679 0.002,0.086 0.45,0.08 45.514,8.026 0.45,0.079 z"
       inkscape:connector-curvature="0"
       style="fill:#6272c3" />
    <path
       id="path16629"
       d="m 51.804,129.478 -0.009,-0.466 22.529,-17.484 0.01,0.465 z"
       inkscape:connector-curvature="0"
       style="fill:#7a88cc" />
    <path
       id="path16631"
       d="m 51.795,129.012 22.529,-17.484 0.45,0.08 -22.529,17.484 z m 46.908,55.21 -45.514,-8.025 22.53,-17.485 45.514,8.026 z"
       inkscape:connector-curvature="0"
       style="fill:#7684ca" />
    <path
       id="path16633"
       d="m 98.243,183.221 -44.631,-7.869 22.53,-17.485 44.63,7.87 z"
       inkscape:connector-curvature="0"
       style="fill:#769ac7" />
    <path
       id="path16635"
       d="m 53.612,175.352 22.53,-17.485 44.63,7.87 -22.529,17.484 z m 45.541,8.949 -0.45,-0.079 22.53,-17.484 0.45,0.079 z"
       inkscape:connector-curvature="0"
       style="fill:#7684ca" />
    <path
       id="path16637"
       d="m 99.144,183.834 22.529,-17.483 0.01,0.466 -22.53,17.484 z"
       inkscape:connector-curvature="0"
       style="fill:#7a88cc" />
    <path
       id="path16639"
       d="m 97.335,137.962 -44.63,-7.869 22.529,-17.485 44.631,7.87 z"
       inkscape:connector-curvature="0"
       style="fill:#7684ca" />
    <path
       id="path16641"
       d="m 52.705,130.093 22.53,-17.485 44.63,7.87 -22.53,17.484 z"
       inkscape:connector-curvature="0"
       style="fill:#769ac7" />
    <path
       id="path16643"
       d="m 98.243,183.221 -0.908,-45.259 22.53,-17.484 0.907,45.259 z"
       inkscape:connector-curvature="0"
       style="fill:#7a88cc" />
    <path
       id="path16645"
       d="m 97.335,137.962 22.53,-17.484 0.907,45.259 -22.529,17.484 z"
       inkscape:connector-curvature="0"
       style="fill:#7a9ec8" />
    <path
       id="path16647"
       d="m 97.759,137.117 0.45,0.079 0.009,0.465 0.925,46.172 0.009,0.467 -0.45,-0.079 -45.514,-8.025 -0.45,-0.08 -0.009,-0.466 -0.926,-46.173 -0.009,-0.465 0.45,0.08 z m 0.484,46.104 -0.907,-45.259 -44.63,-7.87 0.907,45.259 44.63,7.87"
       inkscape:connector-curvature="0"
       style="fill:#6272c3" />
    <path
       id="path16649"
       d="m 97.335,137.962 0.908,45.259 -44.631,-7.869 -0.907,-45.259 z"
       inkscape:connector-curvature="0"
       style="fill:#628cbe" />
    <path
       id="path16651"
       d="m 52.245,129.092 22.529,-17.484 45.515,8.025 -22.53,17.484 z"
       inkscape:connector-curvature="0"
       style="fill:#7684ca" />
    <path
       id="path16653"
       d="m 98.218,137.662 22.53,-17.485 0.925,46.174 -22.529,17.483 z"
       inkscape:connector-curvature="0"
       style="fill:#7a88cc" />
    <path
       id="path16655"
       d="m 97.759,137.117 22.53,-17.484 0.449,0.079 -22.529,17.485 z"
       inkscape:connector-curvature="0"
       style="fill:#7684ca" />
    <path
       id="path16657"
       d="m 98.209,137.197 22.529,-17.485 0.01,0.465 -22.53,17.485 z"
       inkscape:connector-curvature="0"
       style="fill:#7a88cc" />
    <path
       id="path16659"
       d="m 69.069,59.953 0.908,45.25 -44.623,-7.868 -0.907,-45.25 z"
       inkscape:connector-curvature="0"
       style="fill:#ffd65d" />
    <path
       id="path16661"
       d="m 1.943,115.592 -0.009,-0.466 22.529,-17.484 0.01,0.465 z"
       inkscape:connector-curvature="0"
       style="fill:#7a88cc" />
    <path
       id="path16663"
       d="m 2.393,115.671 -0.45,-0.079 22.53,-17.485 0.45,0.08 z"
       inkscape:connector-curvature="0"
       style="fill:#7684ca" />
    <path
       id="path16665"
       d="m 69.5,59.11 0.442,0.078 0.009,0.458 0.926,46.181 0.009,0.465 -0.442,-0.078 -45.522,-8.026 -0.45,-0.08 -0.009,-0.465 -0.926,-46.181 -0.009,-0.458 0.45,0.08 z m 0.477,46.093 -0.907,-45.25 -44.623,-7.868 0.907,45.25 44.623,7.868"
       inkscape:connector-curvature="0"
       style="fill:#6272c3" />
    <path
       id="path16667"
       d="M 1.934,115.126 1.008,68.945 23.538,51.461 24.463,97.642 Z M 1.008,68.945 0.999,68.488 l 22.53,-17.485 0.009,0.458 z"
       inkscape:connector-curvature="0"
       style="fill:#7a88cc" />
    <path
       id="path16669"
       d="m 1.917,69.569 22.53,-17.484 0.907,45.25 -22.53,17.485 z"
       inkscape:connector-curvature="0"
       style="fill:#7a88cc" />
    <path
       id="path16671"
       d="M 2.824,114.82 1.917,69.569 24.447,52.085 25.354,97.335 Z"
       inkscape:connector-curvature="0"
       style="fill:#ffdd77" />
    <path
       id="path16673"
       d="m 0.999,68.488 22.53,-17.485 0.45,0.08 -22.53,17.484 z m 46.916,55.21 -45.522,-8.027 22.53,-17.484 45.522,8.026 z"
       inkscape:connector-curvature="0"
       style="fill:#7684ca" />
    <path
       id="path16675"
       d="m 2.824,114.82 22.53,-17.485 44.623,7.868 -22.53,17.485 z"
       inkscape:connector-curvature="0"
       style="fill:#7684ca" />
    <path
       id="path16677"
       d="M 47.447,122.688 2.824,114.82 25.354,97.335 69.977,105.203 Z"
       inkscape:connector-curvature="0"
       style="fill:#ffdc72" />
    <path
       id="path16679"
       d="m 48.357,123.776 -0.442,-0.078 22.53,-17.485 0.442,0.078 z"
       inkscape:connector-curvature="0"
       style="fill:#7684ca" />
    <path
       id="path16681"
       d="m 48.348,123.31 22.529,-17.484 0.01,0.465 -22.53,17.485 z"
       inkscape:connector-curvature="0"
       style="fill:#7a88cc" />
    <path
       id="path16683"
       d="M 1.917,69.569 24.447,52.085 69.069,59.953 46.54,77.437 Z"
       inkscape:connector-curvature="0"
       style="fill:#ffdc72" />
    <path
       id="path16685"
       d="M 46.54,77.437 1.917,69.569 24.447,52.085 69.069,59.953 Z"
       inkscape:connector-curvature="0"
       style="fill:#7684ca" />
    <path
       id="path16687"
       d="M 47.447,122.688 46.54,77.437 69.069,59.953 l 0.908,45.25 z"
       inkscape:connector-curvature="0"
       style="fill:#7a88cc" />
    <path
       id="path16689"
       d="m 46.54,77.437 22.529,-17.484 0.908,45.25 -22.53,17.485 z"
       inkscape:connector-curvature="0"
       style="fill:#ffdd77" />
    <path
       id="path16691"
       d="m 46.971,76.594 0.442,0.078 0.009,0.457 0.926,46.182 0.009,0.465 -0.442,-0.078 -45.522,-8.027 -0.45,-0.079 -0.009,-0.465 -0.926,-46.181 -0.009,-0.458 0.45,0.08 z m 0.476,46.094 -0.907,-45.251 -44.623,-7.868 0.907,45.251 44.623,7.868"
       inkscape:connector-curvature="0"
       style="fill:#6272c3" />
    <path
       id="path16693"
       d="M 46.54,77.437 47.447,122.688 2.824,114.82 1.917,69.569 Z"
       inkscape:connector-curvature="0"
       style="fill:#ffd65d" />
    <path
       id="path16695"
       d="M 1.449,68.567 23.979,51.083 69.5,59.11 46.971,76.594 Z"
       inkscape:connector-curvature="0"
       style="fill:#7684ca" />
    <path
       id="path16697"
       d="m 47.422,77.129 22.53,-17.484 0.925,46.181 -22.529,17.484 z"
       inkscape:connector-curvature="0"
       style="fill:#7a88cc" />
    <path
       id="path16699"
       d="M 46.971,76.594 69.5,59.11 69.942,59.187 47.413,76.672 Z"
       inkscape:connector-curvature="0"
       style="fill:#7684ca" />
    <path
       id="path16701"
       d="m 47.413,76.672 22.529,-17.485 0.01,0.458 -22.53,17.484 z"
       inkscape:connector-curvature="0"
       style="fill:#7a88cc" />
    <path
       id="path16703"
       d="m 119.883,68.46 0.441,0.078 0.009,0.466 0.926,46.173 0.009,0.466 -0.441,-0.078 -45.523,-8.027 -0.441,-0.078 -0.009,-0.466 -0.925,-46.173 -0.01,-0.465 0.442,0.078 z m 0.476,46.102 -0.907,-45.259 -44.623,-7.868 0.908,45.259 44.622,7.868"
       inkscape:connector-curvature="0"
       style="fill:#6272c3" />
    <path
       id="path16705"
       d="m 119.452,69.303 0.907,45.259 -44.622,-7.868 -0.907,-45.259 z"
       inkscape:connector-curvature="0"
       style="fill:#ffd65d" />
    <path
       id="path16707"
       d="m 52.334,124.944 -0.009,-0.466 22.529,-17.485 0.009,0.466 z"
       inkscape:connector-curvature="0"
       style="fill:#7a88cc" />
    <path
       id="path16709"
       d="m 52.775,125.021 -0.441,-0.077 22.529,-17.485 0.442,0.078 z"
       inkscape:connector-curvature="0"
       style="fill:#7684ca" />
    <path
       id="path16711"
       d="m 52.325,124.478 -0.926,-46.173 22.53,-17.484 0.925,46.172 z"
       inkscape:connector-curvature="0"
       style="fill:#7a88cc" />
    <path
       id="path16713"
       d="M 51.399,78.305 51.39,77.84 73.919,60.355 l 0.01,0.466 z m 0.901,0.614 22.529,-17.484 0.908,45.259 -22.53,17.484 z"
       inkscape:connector-curvature="0"
       style="fill:#7a88cc" />
    <path
       id="path16715"
       d="M 53.207,124.178 52.3,78.919 74.83,61.435 l 0.907,45.259 z"
       inkscape:connector-curvature="0"
       style="fill:#ffdd77" />
    <path
       id="path16717"
       d="m 51.39,77.84 22.529,-17.485 0.442,0.078 -22.53,17.484 z m 46.908,55.208 -45.523,-8.027 22.53,-17.484 45.523,8.027 z"
       inkscape:connector-curvature="0"
       style="fill:#7684ca" />
    <path
       id="path16719"
       d="m 97.829,132.046 -44.622,-7.868 22.53,-17.484 44.622,7.868 z"
       inkscape:connector-curvature="0"
       style="fill:#ffdc72" />
    <path
       id="path16721"
       d="m 53.207,124.178 22.53,-17.484 44.622,7.868 -22.53,17.484 z m 45.532,8.948 -0.441,-0.078 22.53,-17.484 0.441,0.078 z"
       inkscape:connector-curvature="0"
       style="fill:#7684ca" />
    <path
       id="path16723"
       d="m 98.73,132.66 22.53,-17.484 0.009,0.466 -22.53,17.484 z"
       inkscape:connector-curvature="0"
       style="fill:#7a88cc" />
    <path
       id="path16725"
       d="M 96.922,86.787 97.829,132.046 53.207,124.178 52.3,78.919 Z"
       inkscape:connector-curvature="0"
       style="fill:#ffd65d" />
    <path
       id="path16727"
       d="M 96.922,86.787 52.3,78.919 74.829,61.435 l 44.623,7.868 z"
       inkscape:connector-curvature="0"
       style="fill:#7684ca" />
    <path
       id="path16729"
       d="m 52.3,78.919 22.53,-17.484 44.622,7.868 -22.53,17.484 z"
       inkscape:connector-curvature="0"
       style="fill:#ffdc72" />
    <path
       id="path16731"
       d="m 97.829,132.046 -0.907,-45.259 22.53,-17.484 0.907,45.259 z"
       inkscape:connector-curvature="0"
       style="fill:#7a88cc" />
    <path
       id="path16733"
       d="m 96.922,86.787 22.53,-17.484 0.907,45.259 -22.53,17.484 z"
       inkscape:connector-curvature="0"
       style="fill:#ffdd77" />
    <path
       id="path16735"
       d="M 51.831,77.917 74.361,60.433 119.883,68.46 97.354,85.944 Z"
       inkscape:connector-curvature="0"
       style="fill:#7684ca" />
    <path
       id="path16737"
       d="m 97.805,86.488 22.529,-17.485 0.926,46.173 -22.53,17.484 z"
       inkscape:connector-curvature="0"
       style="fill:#7a88cc" />
    <path
       id="path16739"
       d="m 97.354,85.944 22.529,-17.484 0.442,0.077 -22.53,17.485 z"
       inkscape:connector-curvature="0"
       style="fill:#7684ca" />
    <path
       id="path16741"
       d="m 97.795,86.022 22.53,-17.485 0.009,0.466 -22.529,17.485 z"
       inkscape:connector-curvature="0"
       style="fill:#7a88cc" />
    <path
       id="path16743"
       d="m 97.354,85.944 0.441,0.078 0.01,0.466 0.925,46.173 0.009,0.465 -0.441,-0.078 -45.522,-8.027 -0.441,-0.078 -0.009,-0.466 -0.926,-46.173 -0.009,-0.465 0.441,0.078 z m 0.475,46.102 -0.907,-45.259 -44.622,-7.868 0.907,45.259 44.622,7.868 M 68.494,8.105 l 0.45,0.079 0.009,0.465 0.926,46.173 0.009,0.465 -0.45,-0.079 -45.514,-8.025 -0.45,-0.08 L 23.465,46.638 22.54,0.465 22.53,0 22.98,0.08 Z M 68.978,54.208 68.07,8.95 23.44,1.08 l 0.907,45.259 44.631,7.869"
       inkscape:connector-curvature="0"
       style="fill:#6272c3" />
    <path
       id="path16745"
       d="M 68.07,8.95 68.978,54.208 24.347,46.339 23.44,1.08 Z"
       inkscape:connector-curvature="0"
       style="fill:#ffd65d" />
    <path
       id="path16747"
       d="m 0.944,64.589 -0.009,-0.466 22.529,-17.484 0.01,0.465 z"
       inkscape:connector-curvature="0"
       style="fill:#7a88cc" />
    <path
       id="path16749"
       d="m 1.394,64.668 -0.45,-0.079 22.53,-17.485 0.45,0.08 z"
       inkscape:connector-curvature="0"
       style="fill:#7684ca" />
    <path
       id="path16751"
       d="M 0.935,64.123 0.009,17.95 22.539,0.466 23.464,46.639 Z"
       inkscape:connector-curvature="0"
       style="fill:#7a88cc" />
    <path
       id="path16753"
       d="M 0.009,17.95 0,17.485 22.529,0 l 0.01,0.466 z"
       inkscape:connector-curvature="0"
       style="fill:#7a88cc" />
    <path
       id="path16755"
       d="M 1.817,63.823 0.91,18.565 23.44,1.08 24.347,46.339 Z"
       inkscape:connector-curvature="0"
       style="fill:#ffdd77" />
    <path
       id="path16757"
       d="M 0.91,18.565 23.44,1.08 24.347,46.339 1.817,63.823 Z"
       inkscape:connector-curvature="0"
       style="fill:#7a88cc" />
    <path
       id="path16759"
       d="M 0,17.485 22.529,0 22.979,0.08 0.45,17.564 Z M 46.908,72.693 1.394,64.668 23.924,47.184 69.438,55.209 Z"
       inkscape:connector-curvature="0"
       style="fill:#7684ca" />
    <path
       id="path16761"
       d="M 46.448,71.693 1.817,63.823 24.347,46.339 68.978,54.208 Z"
       inkscape:connector-curvature="0"
       style="fill:#ffdc72" />
    <path
       id="path16763"
       d="m 1.817,63.823 22.53,-17.484 44.631,7.869 -22.53,17.485 z m 45.541,8.95 -0.45,-0.08 22.53,-17.484 0.45,0.079 z"
       inkscape:connector-curvature="0"
       style="fill:#7684ca" />
    <path
       id="path16765"
       d="m 47.349,72.307 22.529,-17.484 0.01,0.465 -22.53,17.485 z M 46.448,71.693 45.541,26.434 68.07,8.95 68.978,54.208 Z"
       inkscape:connector-curvature="0"
       style="fill:#7a88cc" />
    <path
       id="path16767"
       d="M 0.91,18.565 23.44,1.08 68.07,8.95 45.541,26.434 Z"
       inkscape:connector-curvature="0"
       style="fill:#ffdc72" />
    <path
       id="path16769"
       d="M 45.541,26.434 0.91,18.565 23.44,1.08 68.07,8.95 Z"
       inkscape:connector-curvature="0"
       style="fill:#7684ca" />
    <path
       id="path16771"
       d="M 45.541,26.434 46.448,71.693 1.817,63.823 0.91,18.565 Z"
       inkscape:connector-curvature="0"
       style="fill:#ffd65d" />
    <path
       id="path16773"
       d="M 45.541,26.434 68.07,8.95 68.978,54.208 46.448,71.693 Z"
       inkscape:connector-curvature="0"
       style="fill:#ffdd77" />
    <path
       id="path16775"
       d="M 0.45,17.564 22.979,0.08 68.494,8.105 45.964,25.589 Z"
       inkscape:connector-curvature="0"
       style="fill:#7684ca" />
    <path
       id="path16777"
       d="M 46.423,26.134 68.953,8.65 69.878,54.823 47.349,72.307 Z"
       inkscape:connector-curvature="0"
       style="fill:#7a88cc" />
    <path
       id="path16779"
       d="M 45.964,25.589 68.494,8.105 68.943,8.184 46.414,25.669 Z"
       inkscape:connector-curvature="0"
       style="fill:#7684ca" />
    <path
       id="path16781"
       d="M 46.414,25.669 68.943,8.184 68.953,8.65 46.423,26.134 Z"
       inkscape:connector-curvature="0"
       style="fill:#7a88cc" />
    <path
       id="path16783"
       d="m 45.964,25.589 0.45,0.08 0.009,0.465 0.925,46.173 0.009,0.465 -0.45,-0.08 L 1.393,64.667 0.943,64.588 0.934,64.123 0.009,17.95 0,17.485 0.45,17.564 Z M 46.448,71.693 45.541,26.434 0.91,18.565 l 0.907,45.258 44.631,7.87"
       inkscape:connector-curvature="0"
       style="fill:#6272c3" />
    <path
       id="path16785"
       d="m 51.326,73.94 -0.009,-0.457 22.53,-17.485 0.008,0.458 z"
       inkscape:connector-curvature="0"
       style="fill:#7a88cc" />
    <path
       id="path16787"
       d="m 51.776,74.019 -0.45,-0.079 22.529,-17.484 0.451,0.079 z"
       inkscape:connector-curvature="0"
       style="fill:#7684ca" />
    <path
       id="path16789"
       d="m 118.884,17.466 0.441,0.078 0.009,0.458 0.926,46.181 0.009,0.458 -0.441,-0.078 -45.522,-8.027 -0.45,-0.079 -0.009,-0.458 -0.926,-46.181 -0.009,-0.458 0.45,0.08 z m 0.475,46.094 -0.907,-45.25 -44.622,-7.869 0.907,45.25 44.622,7.869"
       inkscape:connector-curvature="0"
       style="fill:#6272c3" />
    <path
       id="path16791"
       d="M 51.317,73.483 50.391,27.302 72.921,9.817 73.847,55.998 Z"
       inkscape:connector-curvature="0"
       style="fill:#7a88cc" />
    <path
       id="path16793"
       d="M 50.391,27.302 50.382,26.844 72.912,9.36 72.921,9.817 Z M 51.3,27.926 73.83,10.441 74.737,55.692 52.208,73.176 Z"
       inkscape:connector-curvature="0"
       style="fill:#7a88cc" />
    <path
       id="path16795"
       d="M 52.208,73.176 51.3,27.926 73.83,10.441 74.737,55.692 Z"
       inkscape:connector-curvature="0"
       style="fill:#7a9ec8" />
    <path
       id="path16797"
       d="m 50.382,26.844 22.53,-17.484 0.45,0.079 -22.53,17.485 z m 46.916,55.202 -45.522,-8.027 22.53,-17.484 45.522,8.027 z"
       inkscape:connector-curvature="0"
       style="fill:#7684ca" />
    <path
       id="path16799"
       d="M 52.208,73.176 74.737,55.692 119.359,63.56 96.83,81.044 Z"
       inkscape:connector-curvature="0"
       style="fill:#7684ca" />
    <path
       id="path16801"
       d="M 96.83,81.044 52.208,73.176 74.737,55.692 119.359,63.56 Z"
       inkscape:connector-curvature="0"
       style="fill:#769ac7" />
    <path
       id="path16803"
       d="m 97.74,82.124 -0.442,-0.078 22.53,-17.484 0.442,0.078 z"
       inkscape:connector-curvature="0"
       style="fill:#7684ca" />
    <path
       id="path16805"
       d="m 97.73,81.667 22.53,-17.485 0.01,0.458 -22.53,17.484 z"
       inkscape:connector-curvature="0"
       style="fill:#7a88cc" />
    <path
       id="path16807"
       d="M 95.923,35.794 96.83,81.044 52.208,73.176 51.3,27.926 Z"
       inkscape:connector-curvature="0"
       style="fill:#628cbe" />
    <path
       id="path16809"
       d="M 95.922,35.794 51.3,27.926 73.83,10.441 l 44.622,7.868 z"
       inkscape:connector-curvature="0"
       style="fill:#7684ca" />
    <path
       id="path16811"
       d="M 51.3,27.926 73.83,10.441 118.452,18.309 95.923,35.794 Z"
       inkscape:connector-curvature="0"
       style="fill:#769ac7" />
    <path
       id="path16813"
       d="m 96.83,81.044 -0.908,-45.25 22.53,-17.485 0.907,45.251 z"
       inkscape:connector-curvature="0"
       style="fill:#7a88cc" />
    <path
       id="path16815"
       d="M 95.923,35.794 118.452,18.309 119.359,63.56 96.83,81.044 Z"
       inkscape:connector-curvature="0"
       style="fill:#7a9ec8" />
    <path
       id="path16817"
       d="M 50.832,26.924 73.362,9.439 118.884,17.466 96.354,34.95 Z"
       inkscape:connector-curvature="0"
       style="fill:#7684ca" />
    <path
       id="path16819"
       d="M 96.805,35.486 119.334,18.001 120.26,64.182 97.73,81.667 Z"
       inkscape:connector-curvature="0"
       style="fill:#7a88cc" />
    <path
       id="path16821"
       d="m 96.354,34.95 22.53,-17.484 0.441,0.078 -22.529,17.484 z"
       inkscape:connector-curvature="0"
       style="fill:#7684ca" />
    <path
       id="path16823"
       d="m 96.796,35.028 22.529,-17.484 0.009,0.457 -22.529,17.485 z"
       inkscape:connector-curvature="0"
       style="fill:#7a88cc" />
    <path
       id="path16825"
       d="m 96.354,34.95 0.441,0.078 0.009,0.458 0.926,46.181 0.009,0.458 -0.441,-0.078 -45.522,-8.027 -0.45,-0.079 -0.009,-0.458 -0.926,-46.181 -0.009,-0.458 0.45,0.08 z M 96.83,81.044 95.922,35.794 51.3,27.926 l 0.907,45.25 44.623,7.868"
       inkscape:connector-curvature="0"
       style="fill:#6272c3" />
    <path
       id="path16827"
       d="m 223.365,189.921 0.907,45.259 -44.63,-7.869 -0.907,-45.259 z"
       inkscape:connector-curvature="0"
       style="fill:#ffd65d" />
    <path
       id="path16829"
       d="m 156.239,245.56 -0.009,-0.465 22.529,-17.484 0.01,0.465 z"
       inkscape:connector-curvature="0"
       style="fill:#7a88cc" />
    <path
       id="path16831"
       d="m 156.689,245.64 -0.45,-0.08 22.53,-17.484 0.45,0.08 z"
       inkscape:connector-curvature="0"
       style="fill:#7684ca" />
    <path
       id="path16833"
       d="m 156.23,245.095 -0.926,-46.173 22.53,-17.484 0.925,46.173 z"
       inkscape:connector-curvature="0"
       style="fill:#7a88cc" />
    <path
       id="path16835"
       d="m 156.205,199.536 22.529,-17.484 0.908,45.259 -22.53,17.484 z"
       inkscape:connector-curvature="0"
       style="fill:#7a88cc" />
    <path
       id="path16837"
       d="m 157.112,244.795 -0.907,-45.259 22.53,-17.484 0.907,45.259 z"
       inkscape:connector-curvature="0"
       style="fill:#ffdd77" />
    <path
       id="path16839"
       d="m 225.173,235.794 -0.925,-46.173 -0.01,-0.464 -0.449,-0.081 -45.515,-8.025 -0.45,-0.079 0.01,0.466 0.026,1.293 0.874,-0.679 44.631,7.869 0.907,45.259 -44.63,-7.869 -0.875,0.679 0.002,0.086 0.45,0.08 45.514,8.025 0.45,0.079 z"
       inkscape:connector-curvature="0"
       style="fill:#6272c3" />
    <path
       id="path16841"
       d="m 155.304,198.922 -0.009,-0.466 22.529,-17.484 0.01,0.466 z"
       inkscape:connector-curvature="0"
       style="fill:#7a88cc" />
    <path
       id="path16843"
       d="m 155.295,198.456 22.529,-17.484 0.45,0.079 -22.529,17.484 z m 46.908,55.209 -45.514,-8.025 22.53,-17.484 45.514,8.025 z"
       inkscape:connector-curvature="0"
       style="fill:#7684ca" />
    <path
       id="path16845"
       d="m 201.743,252.664 -44.631,-7.869 22.53,-17.484 44.63,7.869 z"
       inkscape:connector-curvature="0"
       style="fill:#ffdc72" />
    <path
       id="path16847"
       d="m 157.112,244.795 22.53,-17.484 44.63,7.869 -22.529,17.484 z m 45.541,8.949 -0.45,-0.079 22.53,-17.484 0.45,0.079 z"
       inkscape:connector-curvature="0"
       style="fill:#7684ca" />
    <path
       id="path16849"
       d="m 202.644,253.279 22.529,-17.485 0.01,0.466 -22.53,17.484 z"
       inkscape:connector-curvature="0"
       style="fill:#7a88cc" />
    <path
       id="path16851"
       d="m 200.835,207.406 0.908,45.258 -44.631,-7.869 -0.907,-45.259 z"
       inkscape:connector-curvature="0"
       style="fill:#ffd65d" />
    <path
       id="path16853"
       d="m 200.835,207.406 -44.63,-7.87 22.529,-17.484 44.631,7.869 z"
       inkscape:connector-curvature="0"
       style="fill:#7684ca" />
    <path
       id="path16855"
       d="m 156.205,199.536 22.53,-17.484 44.63,7.869 -22.53,17.485 z"
       inkscape:connector-curvature="0"
       style="fill:#ffdc72" />
    <path
       id="path16857"
       d="m 201.743,252.664 -0.908,-45.258 22.53,-17.485 0.907,45.259 z"
       inkscape:connector-curvature="0"
       style="fill:#7a88cc" />
    <path
       id="path16859"
       d="m 200.835,207.406 22.53,-17.485 0.907,45.259 -22.529,17.484 z"
       inkscape:connector-curvature="0"
       style="fill:#ffdd77" />
    <path
       id="path16861"
       d="m 155.745,198.535 22.529,-17.484 45.515,8.025 -22.53,17.485 z"
       inkscape:connector-curvature="0"
       style="fill:#7684ca" />
    <path
       id="path16863"
       d="m 201.718,207.106 22.53,-17.485 0.925,46.173 -22.529,17.485 z"
       inkscape:connector-curvature="0"
       style="fill:#7a88cc" />
    <path
       id="path16865"
       d="m 201.259,206.561 22.53,-17.485 0.449,0.08 -22.529,17.484 z"
       inkscape:connector-curvature="0"
       style="fill:#7684ca" />
    <path
       id="path16867"
       d="m 201.709,206.64 22.529,-17.484 0.01,0.465 -22.53,17.485 z"
       inkscape:connector-curvature="0"
       style="fill:#7a88cc" />
    <path
       id="path16869"
       d="m 201.259,206.561 0.45,0.079 0.009,0.466 0.925,46.173 0.009,0.466 -0.45,-0.079 -45.514,-8.025 -0.45,-0.08 -0.009,-0.465 -0.926,-46.173 -0.009,-0.466 0.45,0.079 z m 0.484,46.103 -0.907,-45.259 -44.63,-7.869 0.907,45.259 44.63,7.869 m -30.065,-123.671 0.442,0.078 0.009,0.457 0.926,46.181 0.009,0.458 -0.442,-0.078 -45.522,-8.027 -0.442,-0.077 -0.009,-0.458 -0.926,-46.181 -0.009,-0.457 0.442,0.078 z m 0.476,46.094 -0.907,-45.251 -44.623,-7.868 0.907,45.251 44.623,7.868"
       inkscape:connector-curvature="0"
       style="fill:#6272c3" />
    <path
       id="path16871"
       d="m 171.247,129.836 0.907,45.251 -44.623,-7.868 -0.906,-45.251 z"
       inkscape:connector-curvature="0"
       style="fill:#ffd65d" />
    <path
       id="path16873"
       d="m 104.129,185.469 -0.009,-0.458 22.529,-17.484 0.009,0.458 z"
       inkscape:connector-curvature="0"
       style="fill:#7a88cc" />
    <path
       id="path16875"
       d="m 104.571,185.546 -0.442,-0.077 22.529,-17.484 0.442,0.077 z"
       inkscape:connector-curvature="0"
       style="fill:#7684ca" />
    <path
       id="path16877"
       d="m 104.12,185.011 -0.926,-46.181 22.53,-17.485 0.925,46.182 z"
       inkscape:connector-curvature="0"
       style="fill:#7a88cc" />
    <path
       id="path16879"
       d="m 103.194,138.83 -0.009,-0.457 22.529,-17.485 0.01,0.457 z m 0.901,0.622 22.53,-17.484 0.906,45.251 -22.529,17.484 z"
       inkscape:connector-curvature="0"
       style="fill:#7a88cc" />
    <path
       id="path16881"
       d="m 105.002,184.703 -0.907,-45.251 22.53,-17.484 0.906,45.251 z"
       inkscape:connector-curvature="0"
       style="fill:#ffdd77" />
    <path
       id="path16883"
       d="m 103.185,138.373 22.529,-17.485 0.442,0.078 -22.53,17.484 z m 46.908,55.2 -45.522,-8.027 22.529,-17.484 45.523,8.027 z"
       inkscape:connector-curvature="0"
       style="fill:#7684ca" />
    <path
       id="path16885"
       d="m 149.625,192.572 -44.623,-7.869 22.529,-17.484 44.623,7.868 z"
       inkscape:connector-curvature="0"
       style="fill:#ffdc72" />
    <path
       id="path16887"
       d="m 105.002,184.703 22.529,-17.484 44.623,7.868 -22.529,17.485 z m 45.533,8.949 -0.442,-0.079 22.53,-17.484 0.441,0.078 z"
       inkscape:connector-curvature="0"
       style="fill:#7684ca" />
    <path
       id="path16889"
       d="m 150.525,193.194 22.53,-17.485 0.009,0.458 -22.529,17.485 z"
       inkscape:connector-curvature="0"
       style="fill:#7a88cc" />
    <path
       id="path16891"
       d="m 104.095,139.452 22.53,-17.484 44.622,7.868 -22.53,17.485 z"
       inkscape:connector-curvature="0"
       style="fill:#ffdc72" />
    <path
       id="path16893"
       d="m 148.717,147.321 -44.622,-7.869 22.53,-17.484 44.622,7.868 z"
       inkscape:connector-curvature="0"
       style="fill:#7684ca" />
    <path
       id="path16895"
       d="m 149.625,192.572 -0.908,-45.251 22.53,-17.485 0.907,45.251 z"
       inkscape:connector-curvature="0"
       style="fill:#7a88cc" />
    <path
       id="path16897"
       d="m 148.717,147.321 22.53,-17.485 0.907,45.251 -22.529,17.485 z"
       inkscape:connector-curvature="0"
       style="fill:#ffdd77" />
    <path
       id="path16899"
       d="m 149.149,146.477 0.442,0.078 0.009,0.458 0.926,46.181 0.009,0.458 -0.442,-0.078 -45.522,-8.027 -0.442,-0.077 -0.009,-0.458 -0.926,-46.181 -0.009,-0.457 0.442,0.078 z m 0.476,46.095 -0.907,-45.251 -44.623,-7.868 0.907,45.251 44.623,7.868"
       inkscape:connector-curvature="0"
       style="fill:#6272c3" />
    <path
       id="path16901"
       d="m 148.717,147.321 0.908,45.251 -44.623,-7.869 -0.907,-45.251 z"
       inkscape:connector-curvature="0"
       style="fill:#ffd65d" />
    <path
       id="path16903"
       d="m 103.626,138.45 22.53,-17.484 45.522,8.027 -22.529,17.484 z"
       inkscape:connector-curvature="0"
       style="fill:#7684ca" />
    <path
       id="path16905"
       d="m 149.6,147.013 22.529,-17.485 0.926,46.181 -22.53,17.485 z"
       inkscape:connector-curvature="0"
       style="fill:#7a88cc" />
    <path
       id="path16907"
       d="m 149.149,146.477 22.529,-17.484 0.442,0.078 -22.529,17.484 z"
       inkscape:connector-curvature="0"
       style="fill:#7684ca" />
    <path
       id="path16909"
       d="m 149.591,146.555 22.529,-17.484 0.009,0.457 -22.529,17.485 z"
       inkscape:connector-curvature="0"
       style="fill:#7a88cc" />
    <path
       id="path16911"
       d="m 171.264,77.81 0.442,0.078 0.009,0.466 0.926,46.181 0.009,0.457 -0.442,-0.078 -45.522,-8.027 -0.442,-0.078 -0.009,-0.457 -0.926,-46.181 -0.009,-0.466 0.442,0.078 z m 0.476,46.103 -0.907,-45.25 -44.623,-7.869 0.907,45.25 44.623,7.869"
       inkscape:connector-curvature="0"
       style="fill:#6272c3" />
    <path
       id="path16913"
       d="m 103.715,134.294 -0.009,-0.457 22.529,-17.484 0.009,0.457 z"
       inkscape:connector-curvature="0"
       style="fill:#7a88cc" />
    <path
       id="path16915"
       d="m 104.157,134.372 -0.442,-0.078 22.529,-17.484 0.443,0.078 z"
       inkscape:connector-curvature="0"
       style="fill:#7684ca" />
    <path
       id="path16917"
       d="m 103.706,133.837 -0.926,-46.181 22.53,-17.484 0.925,46.181 z M 102.78,87.656 102.771,87.19 125.3,69.706 l 0.01,0.466 z"
       inkscape:connector-curvature="0"
       style="fill:#7a88cc" />
    <path
       id="path16919"
       d="m 104.588,133.529 -0.907,-45.25 22.529,-17.485 0.908,45.251 z"
       inkscape:connector-curvature="0"
       style="fill:#7a9ec8" />
    <path
       id="path16921"
       d="m 103.681,88.279 22.529,-17.485 0.908,45.251 -22.53,17.484 z"
       inkscape:connector-curvature="0"
       style="fill:#7a88cc" />
    <path
       id="path16923"
       d="m 102.771,87.19 22.529,-17.484 0.442,0.077 -22.53,17.485 z m 46.908,55.209 -45.522,-8.027 22.53,-17.484 45.521,8.027 z"
       inkscape:connector-curvature="0"
       style="fill:#7684ca" />
    <path
       id="path16925"
       d="m 149.21,141.397 -44.622,-7.868 22.53,-17.484 44.622,7.868 z"
       inkscape:connector-curvature="0"
       style="fill:#769ac7" />
    <path
       id="path16927"
       d="m 104.588,133.529 22.53,-17.484 44.622,7.868 -22.53,17.484 z m 45.533,8.948 -0.442,-0.078 22.529,-17.484 0.442,0.077 z"
       inkscape:connector-curvature="0"
       style="fill:#7684ca" />
    <path
       id="path16929"
       d="m 150.112,142.02 22.529,-17.485 0.009,0.457 -22.529,17.485 z"
       inkscape:connector-curvature="0"
       style="fill:#7a88cc" />
    <path
       id="path16931"
       d="m 148.304,96.147 0.906,45.25 -44.622,-7.868 -0.907,-45.25 z"
       inkscape:connector-curvature="0"
       style="fill:#628cbe" />
    <path
       id="path16933"
       d="m 148.304,96.147 -44.623,-7.868 22.529,-17.485 44.623,7.868 z"
       inkscape:connector-curvature="0"
       style="fill:#7684ca" />
    <path
       id="path16935"
       d="m 103.681,88.279 22.529,-17.485 44.623,7.868 -22.529,17.485 z"
       inkscape:connector-curvature="0"
       style="fill:#769ac7" />
    <path
       id="path16937"
       d="m 149.21,141.397 -0.906,-45.25 22.529,-17.485 0.907,45.251 z"
       inkscape:connector-curvature="0"
       style="fill:#7a88cc" />
    <path
       id="path16939"
       d="m 148.304,96.147 22.529,-17.485 0.907,45.251 -22.53,17.484 z"
       inkscape:connector-curvature="0"
       style="fill:#7a9ec8" />
    <path
       id="path16941"
       d="m 103.212,87.268 22.53,-17.485 45.522,8.027 -22.53,17.485 z"
       inkscape:connector-curvature="0"
       style="fill:#7684ca" />
    <path
       id="path16943"
       d="m 149.186,95.839 22.529,-17.485 0.926,46.181 -22.529,17.485 z"
       inkscape:connector-curvature="0"
       style="fill:#7a88cc" />
    <path
       id="path16945"
       d="m 148.734,95.295 22.53,-17.485 0.442,0.078 -22.529,17.484 z"
       inkscape:connector-curvature="0"
       style="fill:#7684ca" />
    <path
       id="path16947"
       d="m 149.177,95.372 22.529,-17.484 0.009,0.466 -22.529,17.485 z"
       inkscape:connector-curvature="0"
       style="fill:#7a88cc" />
    <path
       id="path16949"
       d="m 148.734,95.295 0.442,0.078 0.009,0.466 0.926,46.181 0.009,0.457 -0.442,-0.078 -45.522,-8.027 -0.442,-0.078 -0.009,-0.457 -0.926,-46.181 -0.009,-0.466 0.442,0.078 z m 0.476,46.102 -0.907,-45.25 -44.623,-7.868 0.907,45.25 44.623,7.868"
       inkscape:connector-curvature="0"
       style="fill:#6272c3" />
    <path
       id="path16951"
       d="m 102.716,83.291 -0.009,-0.457 22.529,-17.484 0.009,0.457 z"
       inkscape:connector-curvature="0"
       style="fill:#7a88cc" />
    <path
       id="path16953"
       d="m 103.158,83.369 -0.442,-0.078 22.529,-17.484 0.442,0.078 z"
       inkscape:connector-curvature="0"
       style="fill:#7684ca" />
    <path
       id="path16955"
       d="m 170.265,26.816 0.442,0.078 0.009,0.457 0.926,46.182 0.009,0.457 -0.442,-0.078 -45.522,-8.027 -0.442,-0.078 -0.009,-0.457 -0.926,-46.182 -0.009,-0.457 0.442,0.078 z m 0.476,46.094 -0.907,-45.251 -44.623,-7.868 0.907,45.251 44.623,7.868"
       inkscape:connector-curvature="0"
       style="fill:#6272c3" />
    <path
       id="path16957"
       d="m 102.707,82.834 -0.926,-46.181 22.53,-17.484 0.925,46.181 z m -0.926,-46.181 -0.01,-0.457 22.53,-17.484 0.01,0.457 z"
       inkscape:connector-curvature="0"
       style="fill:#7a88cc" />
    <path
       id="path16959"
       d="m 102.682,37.276 22.529,-17.485 0.907,45.251 -22.529,17.484 z"
       inkscape:connector-curvature="0"
       style="fill:#7a88cc" />
    <path
       id="path16961"
       d="m 103.589,82.526 -0.907,-45.25 22.529,-17.485 0.908,45.251 z"
       inkscape:connector-curvature="0"
       style="fill:#7a9ec8" />
    <path
       id="path16963"
       d="m 101.771,36.196 22.53,-17.484 0.442,0.077 -22.53,17.485 z m 46.909,55.2 -45.522,-8.027 22.529,-17.484 45.522,8.027 z"
       inkscape:connector-curvature="0"
       style="fill:#7684ca" />
    <path
       id="path16965"
       d="m 103.589,82.526 22.529,-17.484 44.623,7.868 -22.53,17.485 z"
       inkscape:connector-curvature="0"
       style="fill:#7684ca" />
    <path
       id="path16967"
       d="m 148.211,90.394 -44.622,-7.868 22.53,-17.484 44.622,7.868 z"
       inkscape:connector-curvature="0"
       style="fill:#769ac7" />
    <path
       id="path16969"
       d="m 149.122,91.474 -0.442,-0.078 22.529,-17.484 0.442,0.078 z"
       inkscape:connector-curvature="0"
       style="fill:#7684ca" />
    <path
       id="path16971"
       d="m 149.112,91.017 22.53,-17.484 0.009,0.457 -22.529,17.484 z"
       inkscape:connector-curvature="0"
       style="fill:#7a88cc" />
    <path
       id="path16973"
       d="m 147.304,45.144 -44.622,-7.868 22.529,-17.485 44.623,7.868 z"
       inkscape:connector-curvature="0"
       style="fill:#7684ca" />
    <path
       id="path16975"
       d="m 148.211,90.395 -0.907,-45.251 22.53,-17.485 0.907,45.251 z"
       inkscape:connector-curvature="0"
       style="fill:#7a88cc" />
    <path
       id="path16977"
       d="m 102.682,37.276 22.529,-17.485 44.623,7.868 -22.53,17.485 z"
       inkscape:connector-curvature="0"
       style="fill:#769ac7" />
    <path
       id="path16979"
       d="m 147.304,45.144 22.53,-17.485 0.907,45.251 -22.53,17.484 z"
       inkscape:connector-curvature="0"
       style="fill:#7a9ec8" />
    <path
       id="path16981"
       d="m 147.736,44.301 0.442,0.078 0.009,0.457 0.926,46.181 0.009,0.457 -0.442,-0.078 -45.522,-8.026 -0.442,-0.078 -0.009,-0.457 -0.926,-46.181 -0.009,-0.457 0.442,0.078 z m 0.475,46.094 -0.907,-45.251 -44.623,-7.868 0.907,45.25 44.623,7.869"
       inkscape:connector-curvature="0"
       style="fill:#6272c3" />
    <path
       id="path16983"
       d="m 147.304,45.144 0.907,45.25 -44.622,-7.868 -0.907,-45.25 z"
       inkscape:connector-curvature="0"
       style="fill:#628cbe" />
    <path
       id="path16985"
       d="m 102.213,36.274 22.53,-17.485 45.522,8.027 -22.529,17.485 z"
       inkscape:connector-curvature="0"
       style="fill:#7684ca" />
    <path
       id="path16987"
       d="m 148.187,44.836 22.529,-17.485 0.926,46.182 -22.53,17.484 z"
       inkscape:connector-curvature="0"
       style="fill:#7a88cc" />
    <path
       id="path16989"
       d="m 147.736,44.301 22.529,-17.485 0.442,0.078 -22.529,17.485 z"
       inkscape:connector-curvature="0"
       style="fill:#7684ca" />
    <path
       id="path16991"
       d="m 148.178,44.379 22.529,-17.485 0.009,0.457 -22.529,17.485 z"
       inkscape:connector-curvature="0"
       style="fill:#7a88cc" />
    <path
       id="path16993"
       d="m 222.366,138.927 0.907,45.25 -44.63,-7.869 -0.907,-45.251 z"
       inkscape:connector-curvature="0"
       style="fill:#ffd65d" />
    <path
       id="path16995"
       d="m 155.24,194.558 -0.009,-0.458 22.53,-17.485 0.009,0.458 z"
       inkscape:connector-curvature="0"
       style="fill:#7a88cc" />
    <path
       id="path16997"
       d="m 155.69,194.637 -0.45,-0.079 22.53,-17.485 0.45,0.08 z"
       inkscape:connector-curvature="0"
       style="fill:#7684ca" />
    <path
       id="path16999"
       d="m 222.79,138.074 0.45,0.079 0.009,0.465 0.926,46.182 0.009,0.457 -0.45,-0.079 -45.514,-8.025 -0.45,-0.079 -0.009,-0.458 -0.926,-46.181 -0.01,-0.465 0.45,0.08 z m 0.483,46.103 -0.907,-45.25 -44.63,-7.87 0.907,45.251 44.63,7.869"
       inkscape:connector-curvature="0"
       style="fill:#6272c3" />
    <path
       id="path17001"
       d="m 155.231,194.1 -0.926,-46.181 22.53,-17.485 0.926,46.181 z"
       inkscape:connector-curvature="0"
       style="fill:#7a88cc" />
    <path
       id="path17003"
       d="m 154.305,147.919 -0.009,-0.466 22.529,-17.484 0.01,0.465 z m 0.901,0.622 22.53,-17.484 0.907,45.251 -22.53,17.484 z"
       inkscape:connector-curvature="0"
       style="fill:#7a88cc" />
    <path
       id="path17005"
       d="m 156.113,193.792 -0.907,-45.251 22.53,-17.484 0.907,45.251 z"
       inkscape:connector-curvature="0"
       style="fill:#ffdd77" />
    <path
       id="path17007"
       d="m 154.296,147.453 22.529,-17.484 0.45,0.08 -22.529,17.483 z m 46.908,55.209 -45.514,-8.025 22.53,-17.484 45.514,8.025 z"
       inkscape:connector-curvature="0"
       style="fill:#7684ca" />
    <path
       id="path17009"
       d="m 156.113,193.792 22.53,-17.484 44.63,7.869 -22.529,17.484 z"
       inkscape:connector-curvature="0"
       style="fill:#7684ca" />
    <path
       id="path17011"
       d="m 200.744,201.661 -44.631,-7.869 22.53,-17.484 44.63,7.869 z"
       inkscape:connector-curvature="0"
       style="fill:#ffdc72" />
    <path
       id="path17013"
       d="m 201.654,202.741 -0.45,-0.079 22.53,-17.484 0.45,0.079 z"
       inkscape:connector-curvature="0"
       style="fill:#7684ca" />
    <path
       id="path17015"
       d="m 201.645,202.284 22.529,-17.484 0.01,0.457 -22.53,17.484 z"
       inkscape:connector-curvature="0"
       style="fill:#7a88cc" />
    <path
       id="path17017"
       d="m 199.837,156.411 -44.631,-7.87 22.53,-17.484 44.63,7.87 z"
       inkscape:connector-curvature="0"
       style="fill:#7684ca" />
    <path
       id="path17019"
       d="m 199.837,156.411 0.907,45.25 -44.631,-7.869 -0.907,-45.251 z"
       inkscape:connector-curvature="0"
       style="fill:#ffd65d" />
    <path
       id="path17021"
       d="m 155.206,148.541 22.53,-17.484 44.63,7.87 -22.529,17.484 z"
       inkscape:connector-curvature="0"
       style="fill:#ffdc72" />
    <path
       id="path17023"
       d="m 200.744,201.661 -0.907,-45.25 22.529,-17.484 0.907,45.25 z"
       inkscape:connector-curvature="0"
       style="fill:#7a88cc" />
    <path
       id="path17025"
       d="m 199.837,156.411 22.529,-17.484 0.907,45.25 -22.529,17.484 z"
       inkscape:connector-curvature="0"
       style="fill:#ffdd77" />
    <path
       id="path17027"
       d="m 154.746,147.532 22.529,-17.483 45.515,8.025 -22.53,17.484 z"
       inkscape:connector-curvature="0"
       style="fill:#7684ca" />
    <path
       id="path17029"
       d="m 200.719,156.103 22.53,-17.485 0.925,46.182 -22.529,17.484 z"
       inkscape:connector-curvature="0"
       style="fill:#7a88cc" />
    <path
       id="path17031"
       d="m 200.26,155.558 22.53,-17.484 0.449,0.079 -22.529,17.485 z"
       inkscape:connector-curvature="0"
       style="fill:#7684ca" />
    <path
       id="path17033"
       d="m 200.71,155.638 22.529,-17.485 0.01,0.465 -22.53,17.485 z"
       inkscape:connector-curvature="0"
       style="fill:#7a88cc" />
    <path
       id="path17035"
       d="m 200.26,155.558 0.45,0.08 0.009,0.465 0.926,46.182 0.009,0.457 -0.45,-0.079 -45.514,-8.025 -0.45,-0.079 -0.009,-0.458 -0.926,-46.181 -0.009,-0.466 0.45,0.079 z m 0.484,46.103 -0.907,-45.25 -44.631,-7.87 0.907,45.251 44.631,7.869"
       inkscape:connector-curvature="0"
       style="fill:#6272c3" />
    <path
       id="path17037"
       d="m 221.952,87.745 0.907,45.258 -44.63,-7.869 -0.907,-45.259 z"
       inkscape:connector-curvature="0"
       style="fill:#ffd65d" />
    <path
       id="path17039"
       d="m 154.826,143.384 -0.009,-0.466 22.529,-17.484 0.009,0.465 z"
       inkscape:connector-curvature="0"
       style="fill:#7a88cc" />
    <path
       id="path17041"
       d="m 155.276,143.463 -0.45,-0.079 22.529,-17.485 0.451,0.08 z"
       inkscape:connector-curvature="0"
       style="fill:#7684ca" />
    <path
       id="path17043"
       d="m 222.384,86.902 0.441,0.078 0.009,0.465 0.926,46.173 0.009,0.465 -0.441,-0.078 -45.522,-8.026 -0.45,-0.08 -0.009,-0.465 -0.925,-46.173 -0.01,-0.465 0.451,0.08 z m 0.475,46.101 -0.907,-45.258 -44.631,-7.87 0.908,45.259 44.63,7.869"
       inkscape:connector-curvature="0"
       style="fill:#6272c3" />
    <path
       id="path17045"
       d="m 154.817,142.918 -0.926,-46.173 22.53,-17.484 0.925,46.173 z m -0.926,-46.173 -0.009,-0.465 22.529,-17.485 0.01,0.466 z"
       inkscape:connector-curvature="0"
       style="fill:#7a88cc" />
    <path
       id="path17047"
       d="m 154.792,97.36 22.529,-17.485 0.908,45.259 -22.53,17.484 z"
       inkscape:connector-curvature="0"
       style="fill:#7a88cc" />
    <path
       id="path17049"
       d="m 155.699,142.618 -0.907,-45.258 22.53,-17.485 0.907,45.259 z"
       inkscape:connector-curvature="0"
       style="fill:#ffdd77" />
    <path
       id="path17051"
       d="m 153.882,96.28 22.529,-17.485 0.451,0.08 -22.53,17.484 z m 46.916,55.21 -45.522,-8.027 22.53,-17.484 45.522,8.026 z"
       inkscape:connector-curvature="0"
       style="fill:#7684ca" />
    <path
       id="path17053"
       d="m 200.33,150.488 -44.631,-7.87 22.53,-17.484 44.63,7.869 z"
       inkscape:connector-curvature="0"
       style="fill:#ffdc72" />
    <path
       id="path17055"
       d="m 155.699,142.618 22.53,-17.484 44.63,7.869 -22.529,17.485 z m 45.541,8.95 -0.442,-0.078 22.53,-17.485 0.442,0.078 z"
       inkscape:connector-curvature="0"
       style="fill:#7684ca" />
    <path
       id="path17057"
       d="m 201.23,151.102 22.53,-17.484 0.01,0.465 -22.53,17.485 z"
       inkscape:connector-curvature="0"
       style="fill:#7a88cc" />
    <path
       id="path17059"
       d="m 199.422,105.229 0.908,45.259 -44.631,-7.87 -0.907,-45.258 z"
       inkscape:connector-curvature="0"
       style="fill:#ffd65d" />
    <path
       id="path17061"
       d="m 199.422,105.229 -44.63,-7.869 22.529,-17.485 44.631,7.87 z"
       inkscape:connector-curvature="0"
       style="fill:#7684ca" />
    <path
       id="path17063"
       d="m 154.792,97.36 22.53,-17.485 44.63,7.87 -22.53,17.484 z"
       inkscape:connector-curvature="0"
       style="fill:#ffdc72" />
    <path
       id="path17065"
       d="m 200.33,150.488 -0.908,-45.259 22.53,-17.484 0.907,45.258 z"
       inkscape:connector-curvature="0"
       style="fill:#7a88cc" />
    <path
       id="path17067"
       d="m 199.422,105.229 22.53,-17.484 0.907,45.258 -22.529,17.485 z"
       inkscape:connector-curvature="0"
       style="fill:#ffdd77" />
    <path
       id="path17069"
       d="m 154.332,96.359 22.53,-17.484 45.522,8.027 -22.53,17.484 z"
       inkscape:connector-curvature="0"
       style="fill:#7684ca" />
    <path
       id="path17071"
       d="m 200.305,104.929 22.529,-17.484 0.926,46.173 -22.53,17.484 z"
       inkscape:connector-curvature="0"
       style="fill:#7a88cc" />
    <path
       id="path17073"
       d="m 199.854,104.386 22.53,-17.484 0.441,0.077 -22.529,17.485 z"
       inkscape:connector-curvature="0"
       style="fill:#7684ca" />
    <path
       id="path17075"
       d="m 200.296,104.464 22.529,-17.485 0.009,0.466 -22.529,17.484 z"
       inkscape:connector-curvature="0"
       style="fill:#7a88cc" />
    <path
       id="path17077"
       d="m 199.854,104.386 0.442,0.078 0.009,0.465 0.925,46.173 0.009,0.466 -0.441,-0.078 -45.522,-8.026 -0.45,-0.08 -0.009,-0.465 -0.926,-46.173 -0.009,-0.465 0.45,0.08 z m 0.476,46.102 -0.907,-45.259 -44.63,-7.869 0.907,45.258 44.63,7.87"
       inkscape:connector-curvature="0"
       style="fill:#6272c3" />
    <path
       id="path17079"
       d="M 220.954,36.75 221.861,82 177.23,74.131 176.323,28.88 Z"
       inkscape:connector-curvature="0"
       style="fill:#ffd65d" />
    <path
       id="path17081"
       d="m 153.827,92.381 -0.009,-0.458 22.53,-17.484 0.008,0.457 z"
       inkscape:connector-curvature="0"
       style="fill:#7a88cc" />
    <path
       id="path17083"
       d="m 154.277,92.46 -0.45,-0.079 22.529,-17.485 0.451,0.08 z"
       inkscape:connector-curvature="0"
       style="fill:#7684ca" />
    <path
       id="path17085"
       d="m 221.376,35.897 0.45,0.08 0.009,0.465 0.926,46.181 0.009,0.458 -0.45,-0.08 -45.514,-8.025 -0.45,-0.08 -0.009,-0.458 -0.926,-46.181 -0.01,-0.465 0.45,0.08 z M 221.861,82 220.954,36.75 176.323,28.88 177.23,74.13 221.861,82"
       inkscape:connector-curvature="0"
       style="fill:#6272c3" />
    <path
       id="path17087"
       d="m 153.818,91.923 -0.926,-46.181 22.53,-17.484 0.926,46.181 z m -0.926,-46.181 -0.009,-0.465 22.529,-17.485 0.01,0.466 z"
       inkscape:connector-curvature="0"
       style="fill:#7a88cc" />
    <path
       id="path17089"
       d="M 153.793,46.365 176.323,28.88 177.23,74.131 154.7,91.615 Z"
       inkscape:connector-curvature="0"
       style="fill:#7a88cc" />
    <path
       id="path17091"
       d="m 154.7,91.615 -0.907,-45.25 22.53,-17.485 0.907,45.251 z"
       inkscape:connector-curvature="0"
       style="fill:#ffdd77" />
    <path
       id="path17093"
       d="m 152.883,45.277 22.529,-17.485 0.45,0.08 -22.529,17.484 z m 46.908,55.208 -45.514,-8.025 22.53,-17.484 45.514,8.025 z"
       inkscape:connector-curvature="0"
       style="fill:#7684ca" />
    <path
       id="path17095"
       d="M 199.331,99.485 154.7,91.615 177.23,74.131 221.861,82 Z"
       inkscape:connector-curvature="0"
       style="fill:#ffdc72" />
    <path
       id="path17097"
       d="M 154.7,91.615 177.23,74.131 221.861,82 199.331,99.485 Z m 45.541,8.95 -0.45,-0.08 22.53,-17.484 0.45,0.079 z"
       inkscape:connector-curvature="0"
       style="fill:#7684ca" />
    <path
       id="path17099"
       d="m 200.232,100.107 22.529,-17.484 0.01,0.457 -22.53,17.485 z"
       inkscape:connector-curvature="0"
       style="fill:#7a88cc" />
    <path
       id="path17101"
       d="m 198.424,54.234 0.907,45.251 -44.631,-7.87 -0.907,-45.25 z"
       inkscape:connector-curvature="0"
       style="fill:#ffd65d" />
    <path
       id="path17103"
       d="m 198.424,54.234 -44.631,-7.869 22.53,-17.485 44.631,7.87 z"
       inkscape:connector-curvature="0"
       style="fill:#7684ca" />
    <path
       id="path17105"
       d="m 153.793,46.365 22.53,-17.485 44.631,7.87 -22.53,17.484 z"
       inkscape:connector-curvature="0"
       style="fill:#ffdc72" />
    <path
       id="path17107"
       d="M 199.331,99.485 198.424,54.234 220.954,36.75 221.861,82 Z"
       inkscape:connector-curvature="0"
       style="fill:#7a88cc" />
    <path
       id="path17109"
       d="M 198.424,54.234 220.954,36.75 221.861,82 199.331,99.485 Z"
       inkscape:connector-curvature="0"
       style="fill:#ffdd77" />
    <path
       id="path17111"
       d="m 153.333,45.356 22.529,-17.484 45.514,8.025 -22.529,17.484 z"
       inkscape:connector-curvature="0"
       style="fill:#7684ca" />
    <path
       id="path17113"
       d="m 199.306,53.926 22.529,-17.484 0.926,46.181 -22.529,17.484 z"
       inkscape:connector-curvature="0"
       style="fill:#7a88cc" />
    <path
       id="path17115"
       d="m 198.847,53.381 22.529,-17.484 0.45,0.079 -22.529,17.485 z"
       inkscape:connector-curvature="0"
       style="fill:#7684ca" />
    <path
       id="path17117"
       d="m 199.297,53.461 22.529,-17.485 0.009,0.466 -22.529,17.484 z"
       inkscape:connector-curvature="0"
       style="fill:#7a88cc" />
    <path
       id="path17119"
       d="m 198.847,53.381 0.45,0.08 0.009,0.465 0.926,46.181 0.009,0.458 -0.45,-0.08 -45.514,-8.025 -0.45,-0.08 -0.009,-0.458 -0.926,-46.181 -0.009,-0.465 0.45,0.08 z m 0.484,46.104 -0.907,-45.25 -44.631,-7.87 0.907,45.25 44.631,7.87"
       inkscape:connector-curvature="0"
       style="fill:#6272c3" />
  </g>
</svg>
